<svg xmlns="http://www.w3.org/2000/svg" width="1440" height="2400" viewBox="0 0 1440 2400">
  <defs>
    <radialGradient id="g" cx="50%" cy="30%" r="75%">
      <stop offset="0%" stop-color="#0c1e0c"/>
      <stop offset="50%" stop-color="#060e06"/>
      <stop offset="100%" stop-color="#010301"/>
    </radialGradient>
    <pattern id="s" width="1" height="3" patternUnits="userSpaceOnUse">
      <rect width="1" height="1.5" fill="rgba(0,255,65,0.025)"/>
      <rect y="1.5" width="1" height="1.5" fill="transparent"/>
    </pattern>
    <filter id="gl">
      <feGaussianBlur stdDeviation="2" result="b"/>
      <feComposite in="SourceGraphic" in2="b" operator="over"/>
    </filter>
    <linearGradient id="hl" x1="0" y1="0" x2="1" y2="0">
      <stop offset="0%" stop-color="#00ff41" stop-opacity="0"/>
      <stop offset="50%" stop-color="#00ff41" stop-opacity="0.15"/>
      <stop offset="100%" stop-color="#00ff41" stop-opacity="0"/>
    </linearGradient>
  </defs>
  <rect width="1440" height="2400" fill="url(#g)"/>
  <rect width="1440" height="2400" fill="url(#s)" opacity="0.7"/>
  <rect x="6" y="6" width="1428" height="2388" rx="10" fill="none" stroke="#143014" stroke-width="1.5" opacity="0.4"/>
  <rect x="10" y="10" width="1420" height="2380" rx="7" fill="none" stroke="#0a200a" stroke-width="0.75" opacity="0.25"/>
  <rect x="14" y="14" width="1412" height="40" rx="5" fill="#0b180b" opacity="0.9"/>
  <circle cx="32" cy="34" r="5" fill="#ff3b30" opacity="0.8"/>
  <circle cx="50" cy="34" r="5" fill="#ffcc00" opacity="0.8"/>
  <circle cx="68" cy="34" r="5" fill="#28cd41" opacity="0.8"/>
  <text x="720" y="39" font-family="'SF Mono','Menlo','Courier New',monospace" font-size="12" fill="#00ff41" text-anchor="middle" opacity="0.5" filter="url(#gl)">SPLUNK-BOT  v1.0.0  ─  Platform Audit Terminal</text>
  <g stroke="#00ff41" stroke-width="0.2" opacity="0.04">
    <line x1="360" y1="60" x2="360" y2="2394"/>
    <line x1="720" y1="60" x2="720" y2="2394"/>
    <line x1="1080" y1="60" x2="1080" y2="2394"/>
  </g>
  <rect x="14" y="2356" width="1412" height="32" rx="5" fill="#0b180b" opacity="0.7"/>
  <text x="28" y="2377" font-family="'SF Mono','Menlo','Courier New',monospace" font-size="11" fill="#00ff41" opacity="0.35">[SESSION] splunk-bot@splunk-vm  localhost:8000</text>
  <text x="1412" y="2377" font-family="'SF Mono','Menlo','Courier New',monospace" font-size="11" fill="#00ff41" opacity="0.35" text-anchor="end">Splunk Enterprise 10.x</text>
</svg>
